# xmcd
#
# Track frame offsets:
#	150
#	19721
#	41942
#	63703
#	86100
#	103408
#	120015
#	136239
#	159971
#	180194
#	194526
#	215377
#
# Disc length: 3161 seconds
# Revision: 2
# Processed by: cddbd v1.5.2PL0 Copyright (c) Steve Scherf et al.
# Submitted via: dBpowerAMP V12.0
#
DISCID=a10c570c
DTITLE=Eric Bibb - Home to Me
DYEAR=1999
DGENRE=Blues
TTITLE0=World War Blues
TTITLE1=Healing Time
TTITLE2=Mandela is Free
TTITLE3=No More Cane on the Brazos
TTITLE4=Livin', Lovin' an' Doin'
TTITLE5=Walk the Walk
TTITLE6=But Your Foot Fown
TTITLE7=For You
TTITLE8=New Shoes
TTITLE9=Singin' in My Heart
TTITLE10=Come Back Baby
TTITLE11=Bring it on Home to Me
EXTD=
EXTT0=
EXTT1=
EXTT2=
EXTT3=
EXTT4=
EXTT5=
EXTT6=
EXTT7=
EXTT8=
EXTT9=
EXTT10=
EXTT11=
PLAYORDER=
